<?xml version="1.0" standalone="no"?>
<!DOCTYPE svg PUBLIC "-//W3C//DTD SVG 20010904//EN"
 "http://www.w3.org/TR/2001/REC-SVG-20010904/DTD/svg10.dtd">
<svg version="1.0" xmlns="http://www.w3.org/2000/svg"
 width="225.000000pt" height="225.000000pt" viewBox="0 0 225.000000 225.000000"
 preserveAspectRatio="xMidYMid meet">
<metadata>
Created by potrace 1.16, written by Peter Selinger 2001-2019
</metadata>
<g transform="translate(0.000000,225.000000) scale(0.100000,-0.100000)"
fill="#000000" stroke="none">
<path d="M1635 1825 c-22 -8 -89 -34 -149 -58 l-109 -44 -71 26 c-65 24 -84
26 -221 26 -136 -1 -157 -3 -223 -27 -104 -38 -175 -83 -257 -163 -223 -219
-273 -541 -127 -819 33 -63 37 -67 50 -50 28 37 63 124 78 194 26 126 75 193
173 238 45 21 64 24 125 20 39 -3 86 -12 103 -22 154 -80 206 -268 112 -409
-43 -66 -104 -102 -211 -126 -81 -19 -208 -74 -208 -90 0 -12 116 -69 185 -91
96 -30 247 -37 345 -16 239 50 441 235 516 471 45 142 43 287 -7 440 l-21 61
56 139 c31 77 56 154 56 173 0 97 -100 162 -195 127z m99 -76 c17 -13 26 -30
26 -48 0 -38 -296 -783 -317 -798 -20 -15 -57 -17 -81 -4 -10 5 -42 60 -72
122 -74 153 -122 200 -274 274 -63 31 -117 62 -120 71 -10 26 -7 69 7 86 12
17 759 317 788 318 9 0 28 -9 43 -21z"/>
<path d="M1368 1542 c-55 -33 -73 -113 -39 -166 41 -61 126 -76 180 -31 62 53
62 137 0 190 -37 30 -99 33 -141 7z"/>
<path d="M744 981 c-39 -24 -64 -76 -64 -133 0 -41 -5 -48 -70 -113 -65 -65
-69 -70 -53 -87 9 -10 20 -18 25 -18 4 0 35 28 68 61 53 56 60 60 74 46 9 -9
16 -19 16 -24 0 -4 -27 -35 -60 -68 l-61 -61 21 -19 c21 -19 21 -18 93 52 63
62 76 71 100 66 37 -7 112 22 137 54 29 38 26 79 -10 115 -24 23 -37 29 -60
26 -29 -4 -30 -3 -30 32 0 67 -69 106 -126 71z"/>
</g>
</svg>
